<svg width="26" height="21" viewBox="0 0 26 21" fill="none" xmlns="http://www.w3.org/2000/svg">
<path d="M24.0234 5.14844C24.7005 6.1901 24.7917 7.29688 24.2969 8.46875C23.8021 9.64062 22.9427 10.3047 21.7188 10.4609C21.5365 10.487 21.3542 10.5 21.1719 10.5C20.026 10.5 19.0755 10.0703 18.3203 9.21094C17.5391 10.0703 16.5755 10.5 15.4297 10.5C14.2839 10.5 13.3203 10.0703 12.5391 9.21094C11.7578 10.0703 10.7943 10.5 9.64844 10.5C8.5026 10.5 7.53906 10.0703 6.75781 9.21094C6.0026 10.0703 5.03906 10.5 3.86719 10.5C3.71094 10.5 3.54167 10.487 3.35938 10.4609C2.13542 10.3047 1.27604 9.64062 0.78125 8.46875C0.286458 7.29688 0.377604 6.1901 1.05469 5.14844L3.59375 1.08594C3.82812 0.695312 4.17969 0.5 4.64844 0.5H20.4297C20.8984 0.5 21.25 0.695312 21.4844 1.08594L24.0234 5.14844ZM21.2109 11.75C21.4453 11.75 21.6797 11.737 21.9141 11.7109C22.0964 11.6849 22.3047 11.6328 22.5391 11.5547V19.25C22.5391 19.5885 22.4089 19.875 22.1484 20.1094C21.9141 20.3698 21.6276 20.5 21.2891 20.5H3.78906C3.55469 20.5 3.34635 20.4349 3.16406 20.3047C2.98177 20.2005 2.82552 20.0573 2.69531 19.875C2.59115 19.6927 2.53906 19.4844 2.53906 19.25V11.5547C2.77344 11.6328 2.98177 11.6849 3.16406 11.7109C3.39844 11.737 3.63281 11.75 3.86719 11.75C4.20573 11.75 4.59635 11.6979 5.03906 11.5938V15.5H20.0391V11.5938C20.4557 11.6979 20.8464 11.75 21.2109 11.75Z" fill="#9BC53D"/>
</svg>
